<svg width="1920" height="92" viewBox="0 0 1920 92" fill="none" xmlns="http://www.w3.org/2000/svg">
<rect width="1920" height="92" fill="#043873"/>
<path d="M255.989 56H248.77V35.6364H256.048C258.097 35.6364 259.86 36.044 261.338 36.8594C262.816 37.6681 263.953 38.8314 264.749 40.3494C265.551 41.8674 265.952 43.6837 265.952 45.7983C265.952 47.9195 265.551 49.7424 264.749 51.267C263.953 52.7917 262.81 53.9616 261.318 54.777C259.833 55.5923 258.057 56 255.989 56ZM253.075 52.3111H255.81C257.082 52.3111 258.153 52.0857 259.021 51.6349C259.896 51.1776 260.553 50.4716 260.99 49.517C261.434 48.5559 261.656 47.3163 261.656 45.7983C261.656 44.2936 261.434 43.0639 260.99 42.1094C260.553 41.1548 259.9 40.4522 259.031 40.0014C258.163 39.5507 257.092 39.3253 255.82 39.3253H253.075V52.3111ZM286.174 35.6364V56H282.455L273.596 43.1832H273.446V56H269.141V35.6364H272.919L281.709 48.4432H281.888V35.6364H286.174ZM307.698 42.7656H303.343C303.263 42.2022 303.101 41.7017 302.856 41.2642C302.611 40.8201 302.296 40.4422 301.911 40.1307C301.527 39.8191 301.083 39.5805 300.579 39.4148C300.082 39.2491 299.541 39.1662 298.958 39.1662C297.904 39.1662 296.986 39.428 296.204 39.9517C295.422 40.4687 294.815 41.2244 294.384 42.2188C293.953 43.2064 293.738 44.4062 293.738 45.8182C293.738 47.2699 293.953 48.4896 294.384 49.4773C294.822 50.465 295.432 51.2107 296.214 51.7145C296.996 52.2183 297.901 52.4702 298.928 52.4702C299.505 52.4702 300.039 52.3939 300.529 52.2415C301.026 52.089 301.467 51.867 301.852 51.5753C302.236 51.277 302.554 50.9157 302.806 50.4915C303.065 50.0672 303.244 49.5833 303.343 49.0398L307.698 49.0597C307.585 49.9943 307.304 50.8958 306.853 51.7642C306.409 52.6259 305.809 53.3982 305.053 54.081C304.304 54.7571 303.409 55.294 302.369 55.6918C301.335 56.0829 300.165 56.2784 298.859 56.2784C297.042 56.2784 295.418 55.8674 293.987 55.0455C292.561 54.2235 291.434 53.0336 290.606 51.4759C289.784 49.9181 289.373 48.0322 289.373 45.8182C289.373 43.5975 289.79 41.7083 290.626 40.1506C291.461 38.5928 292.594 37.4062 294.026 36.5909C295.458 35.7689 297.069 35.358 298.859 35.358C300.039 35.358 301.132 35.5237 302.14 35.8551C303.154 36.1866 304.052 36.6705 304.835 37.3068C305.617 37.9366 306.253 38.7088 306.744 39.6236C307.241 40.5384 307.559 41.5857 307.698 42.7656ZM317.266 56V35.6364H321.502V43.2926H321.631C321.817 42.8816 322.085 42.464 322.436 42.0398C322.794 41.6089 323.258 41.2509 323.828 40.9659C324.405 40.6742 325.121 40.5284 325.976 40.5284C327.09 40.5284 328.117 40.8201 329.059 41.4034C330 41.9801 330.752 42.8518 331.316 44.0185C331.879 45.1785 332.161 46.6335 332.161 48.3835C332.161 50.0871 331.886 51.5256 331.336 52.6989C330.792 53.8655 330.05 54.7505 329.108 55.3537C328.174 55.9503 327.126 56.2486 325.966 56.2486C325.144 56.2486 324.445 56.1127 323.868 55.8409C323.298 55.5691 322.831 55.2277 322.466 54.8168C322.102 54.3991 321.823 53.9782 321.631 53.554H321.442V56H317.266ZM321.412 48.3636C321.412 49.2718 321.538 50.0639 321.79 50.7401C322.042 51.4162 322.407 51.9432 322.884 52.321C323.361 52.6922 323.941 52.8778 324.624 52.8778C325.313 52.8778 325.897 52.6889 326.374 52.3111C326.851 51.9266 327.212 51.3963 327.458 50.7202C327.71 50.0374 327.836 49.2519 327.836 48.3636C327.836 47.482 327.713 46.7064 327.468 46.0369C327.222 45.3674 326.861 44.8437 326.384 44.4659C325.907 44.0881 325.32 43.8991 324.624 43.8991C323.935 43.8991 323.351 44.0814 322.874 44.446C322.403 44.8106 322.042 45.3277 321.79 45.9972C321.538 46.6667 321.412 47.4555 321.412 48.3636ZM339.342 56.2884C338.368 56.2884 337.5 56.1193 336.737 55.7812C335.975 55.4366 335.372 54.9295 334.928 54.2599C334.49 53.5838 334.271 52.742 334.271 51.7344C334.271 50.8859 334.427 50.1733 334.739 49.5966C335.05 49.0199 335.474 48.5559 336.011 48.2045C336.548 47.8532 337.158 47.5881 337.841 47.4091C338.53 47.2301 339.253 47.1042 340.009 47.0312C340.897 46.9384 341.613 46.8523 342.156 46.7727C342.7 46.6866 343.094 46.5606 343.339 46.3949C343.585 46.2292 343.707 45.9839 343.707 45.6591V45.5994C343.707 44.9697 343.509 44.4825 343.111 44.1378C342.72 43.7931 342.163 43.6207 341.44 43.6207C340.678 43.6207 340.071 43.7898 339.621 44.1278C339.17 44.4593 338.872 44.8769 338.726 45.3807L334.808 45.0625C335.007 44.1345 335.398 43.3324 335.982 42.6562C336.565 41.9735 337.317 41.4498 338.239 41.0852C339.167 40.714 340.241 40.5284 341.46 40.5284C342.309 40.5284 343.121 40.6278 343.896 40.8267C344.679 41.0256 345.371 41.3338 345.974 41.7514C346.584 42.169 347.065 42.706 347.416 43.3622C347.768 44.0118 347.943 44.7907 347.943 45.6989V56H343.926V53.8821H343.807C343.562 54.3594 343.233 54.7803 342.822 55.1449C342.411 55.5028 341.918 55.7846 341.341 55.9901C340.764 56.1889 340.098 56.2884 339.342 56.2884ZM340.555 53.3651C341.179 53.3651 341.729 53.2424 342.206 52.9972C342.683 52.7453 343.058 52.4072 343.33 51.983C343.601 51.5587 343.737 51.0781 343.737 50.5412V48.9205C343.605 49.0066 343.422 49.0862 343.19 49.1591C342.965 49.2254 342.71 49.2884 342.425 49.348C342.14 49.401 341.855 49.4508 341.57 49.4972C341.285 49.5369 341.026 49.5734 340.794 49.6065C340.297 49.6795 339.863 49.7955 339.491 49.9545C339.12 50.1136 338.832 50.3291 338.626 50.6009C338.421 50.866 338.318 51.1974 338.318 51.5952C338.318 52.1719 338.527 52.6127 338.945 52.9176C339.369 53.2159 339.906 53.3651 340.555 53.3651ZM355.465 47.1705V56H351.229V40.7273H355.266V43.4219H355.445C355.783 42.5336 356.35 41.831 357.146 41.3139C357.941 40.7902 358.906 40.5284 360.039 40.5284C361.1 40.5284 362.024 40.7604 362.813 41.2244C363.602 41.6884 364.215 42.3513 364.653 43.2131C365.09 44.0682 365.309 45.089 365.309 46.2756V56H361.073V47.0312C361.08 46.0966 360.841 45.3674 360.357 44.8438C359.873 44.3134 359.207 44.0483 358.359 44.0483C357.789 44.0483 357.285 44.1709 356.847 44.4162C356.416 44.6615 356.078 45.0194 355.833 45.4901C355.594 45.9541 355.472 46.5142 355.465 47.1705ZM372.485 51.6051L372.495 46.5241H373.112L378.004 40.7273H382.866L376.294 48.4034H375.289L372.485 51.6051ZM368.647 56V35.6364H372.883V56H368.647ZM378.193 56L373.699 49.348L376.522 46.3551L383.154 56H378.193Z" fill="white"/>
<path d="M701.778 52.5V39.9H706.188C707.172 39.9 707.988 40.068 708.636 40.404C709.284 40.728 709.764 41.178 710.076 41.754C710.4 42.318 710.562 42.96 710.562 43.68C710.562 44.364 710.406 44.994 710.094 45.57C709.794 46.134 709.32 46.584 708.672 46.92C708.024 47.256 707.196 47.424 706.188 47.424H703.686V52.5H701.778ZM703.686 45.858H706.098C706.998 45.858 707.64 45.666 708.024 45.282C708.42 44.886 708.618 44.352 708.618 43.68C708.618 42.984 708.42 42.444 708.024 42.06C707.64 41.664 706.998 41.466 706.098 41.466H703.686V45.858ZM712.376 52.5V43.572H714.086L714.248 45.264C714.56 44.676 714.992 44.214 715.544 43.878C716.108 43.53 716.786 43.356 717.578 43.356V45.354H717.056C716.528 45.354 716.054 45.444 715.634 45.624C715.226 45.792 714.896 46.086 714.644 46.506C714.404 46.914 714.284 47.484 714.284 48.216V52.5H712.376ZM723.144 52.716C722.292 52.716 721.524 52.524 720.84 52.14C720.168 51.744 719.634 51.198 719.238 50.502C718.842 49.794 718.644 48.972 718.644 48.036C718.644 47.1 718.842 46.284 719.238 45.588C719.646 44.88 720.192 44.334 720.876 43.95C721.56 43.554 722.322 43.356 723.162 43.356C724.014 43.356 724.776 43.554 725.448 43.95C726.132 44.334 726.672 44.88 727.068 45.588C727.476 46.284 727.68 47.1 727.68 48.036C727.68 48.972 727.476 49.794 727.068 50.502C726.672 51.198 726.132 51.744 725.448 52.14C724.764 52.524 723.996 52.716 723.144 52.716ZM723.144 51.078C723.6 51.078 724.02 50.964 724.404 50.736C724.8 50.508 725.118 50.172 725.358 49.728C725.598 49.272 725.718 48.708 725.718 48.036C725.718 47.364 725.598 46.806 725.358 46.362C725.13 45.906 724.818 45.564 724.422 45.336C724.038 45.108 723.618 44.994 723.162 44.994C722.706 44.994 722.28 45.108 721.884 45.336C721.5 45.564 721.188 45.906 720.948 46.362C720.708 46.806 720.588 47.364 720.588 48.036C720.588 48.708 720.708 49.272 720.948 49.728C721.188 50.172 721.5 50.508 721.884 50.736C722.268 50.964 722.688 51.078 723.144 51.078ZM733.811 52.716C732.947 52.716 732.185 52.512 731.525 52.104C730.865 51.696 730.349 51.138 729.977 50.43C729.605 49.722 729.419 48.918 729.419 48.018C729.419 47.118 729.605 46.32 729.977 45.624C730.349 44.916 730.865 44.364 731.525 43.968C732.197 43.56 732.965 43.356 733.829 43.356C734.537 43.356 735.155 43.494 735.683 43.77C736.223 44.046 736.643 44.436 736.943 44.94V39.54H738.851V52.5H737.141L736.943 51.114C736.655 51.534 736.259 51.906 735.755 52.23C735.251 52.554 734.603 52.716 733.811 52.716ZM734.153 51.06C734.969 51.06 735.635 50.778 736.151 50.214C736.679 49.65 736.943 48.924 736.943 48.036C736.943 47.136 736.679 46.41 736.151 45.858C735.635 45.294 734.969 45.012 734.153 45.012C733.337 45.012 732.665 45.294 732.137 45.858C731.609 46.41 731.345 47.136 731.345 48.036C731.345 48.624 731.465 49.146 731.705 49.602C731.945 50.058 732.275 50.418 732.695 50.682C733.127 50.934 733.613 51.06 734.153 51.06ZM744.551 52.716C743.471 52.716 742.619 52.38 741.995 51.708C741.383 51.036 741.077 50.034 741.077 48.702V43.572H742.985V48.504C742.985 50.232 743.693 51.096 745.109 51.096C745.817 51.096 746.399 50.844 746.855 50.34C747.311 49.836 747.539 49.116 747.539 48.18V43.572H749.447V52.5H747.755L747.611 50.934C747.335 51.486 746.927 51.924 746.387 52.248C745.859 52.56 745.247 52.716 744.551 52.716ZM755.618 52.5C754.742 52.5 754.046 52.29 753.53 51.87C753.014 51.438 752.756 50.676 752.756 49.584V45.174H751.226V43.572H752.756L752.99 41.304H754.664V43.572H757.184V45.174H754.664V49.584C754.664 50.076 754.766 50.418 754.97 50.61C755.186 50.79 755.552 50.88 756.068 50.88H757.094V52.5H755.618ZM763.099 52.716C762.247 52.716 761.479 52.524 760.795 52.14C760.123 51.744 759.589 51.198 759.193 50.502C758.797 49.794 758.599 48.972 758.599 48.036C758.599 47.1 758.797 46.284 759.193 45.588C759.601 44.88 760.147 44.334 760.831 43.95C761.515 43.554 762.277 43.356 763.117 43.356C763.969 43.356 764.731 43.554 765.403 43.95C766.087 44.334 766.627 44.88 767.023 45.588C767.431 46.284 767.635 47.1 767.635 48.036C767.635 48.972 767.431 49.794 767.023 50.502C766.627 51.198 766.087 51.744 765.403 52.14C764.719 52.524 763.951 52.716 763.099 52.716ZM763.099 51.078C763.555 51.078 763.975 50.964 764.359 50.736C764.755 50.508 765.073 50.172 765.313 49.728C765.553 49.272 765.673 48.708 765.673 48.036C765.673 47.364 765.553 46.806 765.313 46.362C765.085 45.906 764.773 45.564 764.377 45.336C763.993 45.108 763.573 44.994 763.117 44.994C762.661 44.994 762.235 45.108 761.839 45.336C761.455 45.564 761.143 45.906 760.903 46.362C760.663 46.806 760.543 47.364 760.543 48.036C760.543 48.708 760.663 49.272 760.903 49.728C761.143 50.172 761.455 50.508 761.839 50.736C762.223 50.964 762.643 51.078 763.099 51.078Z" fill="white"/>
<path d="M805.936 52.716C805.012 52.716 804.202 52.554 803.506 52.23C802.81 51.906 802.264 51.444 801.868 50.844C801.484 50.244 801.286 49.53 801.274 48.702H803.29C803.302 49.374 803.536 49.944 803.992 50.412C804.448 50.88 805.09 51.114 805.918 51.114C806.65 51.114 807.22 50.94 807.628 50.592C808.048 50.232 808.258 49.776 808.258 49.224C808.258 48.78 808.156 48.42 807.952 48.144C807.76 47.868 807.49 47.64 807.142 47.46C806.806 47.28 806.416 47.118 805.972 46.974C805.528 46.83 805.06 46.674 804.568 46.506C803.596 46.182 802.864 45.762 802.372 45.246C801.892 44.73 801.652 44.052 801.652 43.212C801.64 42.504 801.802 41.886 802.138 41.358C802.486 40.83 802.966 40.422 803.578 40.134C804.202 39.834 804.928 39.684 805.756 39.684C806.572 39.684 807.286 39.834 807.898 40.134C808.522 40.434 809.008 40.854 809.356 41.394C809.704 41.922 809.884 42.54 809.896 43.248H807.88C807.88 42.924 807.796 42.618 807.628 42.33C807.46 42.03 807.214 41.784 806.89 41.592C806.566 41.4 806.17 41.304 805.702 41.304C805.102 41.292 804.604 41.442 804.208 41.754C803.824 42.066 803.632 42.498 803.632 43.05C803.632 43.542 803.776 43.92 804.064 44.184C804.352 44.448 804.748 44.67 805.252 44.85C805.756 45.018 806.332 45.216 806.98 45.444C807.604 45.648 808.162 45.894 808.654 46.182C809.146 46.47 809.536 46.848 809.824 47.316C810.124 47.784 810.274 48.378 810.274 49.098C810.274 49.734 810.112 50.328 809.788 50.88C809.464 51.42 808.978 51.864 808.33 52.212C807.682 52.548 806.884 52.716 805.936 52.716ZM816.464 52.716C815.612 52.716 814.844 52.524 814.16 52.14C813.488 51.744 812.954 51.198 812.558 50.502C812.162 49.794 811.964 48.972 811.964 48.036C811.964 47.1 812.162 46.284 812.558 45.588C812.966 44.88 813.512 44.334 814.196 43.95C814.88 43.554 815.642 43.356 816.482 43.356C817.334 43.356 818.096 43.554 818.768 43.95C819.452 44.334 819.992 44.88 820.388 45.588C820.796 46.284 821 47.1 821 48.036C821 48.972 820.796 49.794 820.388 50.502C819.992 51.198 819.452 51.744 818.768 52.14C818.084 52.524 817.316 52.716 816.464 52.716ZM816.464 51.078C816.92 51.078 817.34 50.964 817.724 50.736C818.12 50.508 818.438 50.172 818.678 49.728C818.918 49.272 819.038 48.708 819.038 48.036C819.038 47.364 818.918 46.806 818.678 46.362C818.45 45.906 818.138 45.564 817.742 45.336C817.358 45.108 816.938 44.994 816.482 44.994C816.026 44.994 815.6 45.108 815.204 45.336C814.82 45.564 814.508 45.906 814.268 46.362C814.028 46.806 813.908 47.364 813.908 48.036C813.908 48.708 814.028 49.272 814.268 49.728C814.508 50.172 814.82 50.508 815.204 50.736C815.588 50.964 816.008 51.078 816.464 51.078ZM823.063 52.5V39.54H824.971V52.5H823.063ZM830.682 52.716C829.602 52.716 828.75 52.38 828.126 51.708C827.514 51.036 827.208 50.034 827.208 48.702V43.572H829.116V48.504C829.116 50.232 829.824 51.096 831.24 51.096C831.948 51.096 832.53 50.844 832.986 50.34C833.442 49.836 833.67 49.116 833.67 48.18V43.572H835.578V52.5H833.886L833.742 50.934C833.466 51.486 833.058 51.924 832.518 52.248C831.99 52.56 831.378 52.716 830.682 52.716ZM842.235 52.716C841.359 52.716 840.573 52.518 839.877 52.122C839.193 51.726 838.653 51.18 838.257 50.484C837.873 49.776 837.681 48.96 837.681 48.036C837.681 47.112 837.873 46.302 838.257 45.606C838.653 44.898 839.193 44.346 839.877 43.95C840.573 43.554 841.359 43.356 842.235 43.356C843.339 43.356 844.263 43.644 845.007 44.22C845.763 44.796 846.249 45.576 846.465 46.56H844.467C844.347 46.068 844.083 45.684 843.675 45.408C843.267 45.132 842.787 44.994 842.235 44.994C841.767 44.994 841.335 45.114 840.939 45.354C840.543 45.582 840.225 45.924 839.985 46.38C839.745 46.824 839.625 47.376 839.625 48.036C839.625 48.696 839.745 49.254 839.985 49.71C840.225 50.154 840.543 50.496 840.939 50.736C841.335 50.976 841.767 51.096 842.235 51.096C842.787 51.096 843.267 50.958 843.675 50.682C844.083 50.406 844.347 50.016 844.467 49.512H846.465C846.261 50.472 845.781 51.246 845.025 51.834C844.269 52.422 843.339 52.716 842.235 52.716ZM840.777 57.234V56.082H842.613C843.345 56.082 843.711 55.83 843.711 55.326C843.711 54.858 843.345 54.624 842.613 54.624H841.623V52.41H842.847V53.544C843.495 53.532 844.041 53.676 844.485 53.976C844.941 54.276 845.169 54.738 845.169 55.362C845.169 55.974 844.947 56.436 844.503 56.748C844.071 57.072 843.543 57.234 842.919 57.234H840.777ZM851.558 52.716C850.802 52.716 850.178 52.59 849.686 52.338C849.194 52.086 848.828 51.756 848.588 51.348C848.348 50.928 848.228 50.472 848.228 49.98C848.228 49.116 848.564 48.432 849.236 47.928C849.908 47.424 850.868 47.172 852.116 47.172H854.456V47.01C854.456 46.314 854.264 45.792 853.88 45.444C853.508 45.096 853.022 44.922 852.422 44.922C851.894 44.922 851.432 45.054 851.036 45.318C850.652 45.57 850.418 45.948 850.334 46.452H848.426C848.486 45.804 848.702 45.252 849.074 44.796C849.458 44.328 849.938 43.974 850.514 43.734C851.102 43.482 851.744 43.356 852.44 43.356C853.688 43.356 854.654 43.686 855.338 44.346C856.022 44.994 856.364 45.882 856.364 47.01V52.5H854.708L854.546 50.97C854.294 51.462 853.928 51.876 853.448 52.212C852.968 52.548 852.338 52.716 851.558 52.716ZM851.936 51.168C852.452 51.168 852.884 51.048 853.232 50.808C853.592 50.556 853.868 50.226 854.06 49.818C854.264 49.41 854.39 48.96 854.438 48.468H852.314C851.558 48.468 851.018 48.6 850.694 48.864C850.382 49.128 850.226 49.458 850.226 49.854C850.226 50.262 850.376 50.586 850.676 50.826C850.988 51.054 851.408 51.168 851.936 51.168ZM853.394 42.6C853.07 42.6 852.794 42.534 852.566 42.402C852.338 42.258 852.122 42.12 851.918 41.988C851.726 41.844 851.51 41.772 851.27 41.772C850.826 41.772 850.568 42.042 850.496 42.582H849.434C849.542 41.886 849.758 41.376 850.082 41.052C850.418 40.716 850.838 40.548 851.342 40.548C851.666 40.548 851.942 40.62 852.17 40.764C852.398 40.896 852.608 41.034 852.8 41.178C853.004 41.31 853.232 41.376 853.484 41.376C853.688 41.376 853.856 41.31 853.988 41.178C854.132 41.046 854.222 40.842 854.258 40.566H855.32C855.224 41.25 855.002 41.76 854.654 42.096C854.318 42.432 853.898 42.6 853.394 42.6ZM862.765 52.716C861.913 52.716 861.145 52.524 860.461 52.14C859.789 51.744 859.255 51.198 858.859 50.502C858.463 49.794 858.265 48.972 858.265 48.036C858.265 47.1 858.463 46.284 858.859 45.588C859.267 44.88 859.813 44.334 860.497 43.95C861.181 43.554 861.943 43.356 862.783 43.356C863.635 43.356 864.397 43.554 865.069 43.95C865.753 44.334 866.293 44.88 866.689 45.588C867.097 46.284 867.301 47.1 867.301 48.036C867.301 48.972 867.097 49.794 866.689 50.502C866.293 51.198 865.753 51.744 865.069 52.14C864.385 52.524 863.617 52.716 862.765 52.716ZM862.765 51.078C863.221 51.078 863.641 50.964 864.025 50.736C864.421 50.508 864.739 50.172 864.979 49.728C865.219 49.272 865.339 48.708 865.339 48.036C865.339 47.364 865.219 46.806 864.979 46.362C864.751 45.906 864.439 45.564 864.043 45.336C863.659 45.108 863.239 44.994 862.783 44.994C862.327 44.994 861.901 45.108 861.505 45.336C861.121 45.564 860.809 45.906 860.569 46.362C860.329 46.806 860.209 47.364 860.209 48.036C860.209 48.708 860.329 49.272 860.569 49.728C860.809 50.172 861.121 50.508 861.505 50.736C861.889 50.964 862.309 51.078 862.765 51.078Z" fill="white"/>
<path d="M901.778 52.5V39.9H906.116C907.112 39.9 907.928 40.068 908.564 40.404C909.212 40.74 909.692 41.196 910.004 41.772C910.316 42.336 910.472 42.966 910.472 43.662C910.472 44.442 910.262 45.15 909.842 45.786C909.434 46.422 908.792 46.878 907.916 47.154L910.598 52.5H908.384L905.936 47.424H903.686V52.5H901.778ZM903.686 45.984H906.008C906.872 45.984 907.502 45.774 907.898 45.354C908.306 44.934 908.51 44.388 908.51 43.716C908.51 43.044 908.312 42.51 907.916 42.114C907.52 41.706 906.878 41.502 905.99 41.502H903.686V45.984ZM916.288 52.716C915.412 52.716 914.632 52.524 913.948 52.14C913.276 51.744 912.748 51.198 912.364 50.502C911.98 49.806 911.788 48.996 911.788 48.072C911.788 47.136 911.974 46.314 912.346 45.606C912.73 44.898 913.258 44.346 913.93 43.95C914.614 43.554 915.406 43.356 916.306 43.356C917.182 43.356 917.944 43.554 918.592 43.95C919.24 44.334 919.744 44.85 920.104 45.498C920.464 46.146 920.644 46.86 920.644 47.64C920.644 47.76 920.638 47.892 920.626 48.036C920.626 48.168 920.62 48.318 920.608 48.486H913.66C913.72 49.35 914.002 50.01 914.506 50.466C915.022 50.91 915.616 51.132 916.288 51.132C916.828 51.132 917.278 51.012 917.638 50.772C918.01 50.52 918.286 50.184 918.466 49.764H920.374C920.134 50.604 919.654 51.306 918.934 51.87C918.226 52.434 917.344 52.716 916.288 52.716ZM916.288 44.922C915.652 44.922 915.088 45.114 914.596 45.498C914.104 45.87 913.804 46.434 913.696 47.19H918.736C918.7 46.494 918.454 45.942 917.998 45.534C917.542 45.126 916.972 44.922 916.288 44.922ZM926.188 52.716C925.06 52.716 924.13 52.44 923.398 51.888C922.666 51.336 922.246 50.604 922.138 49.692H924.064C924.16 50.1 924.388 50.454 924.748 50.754C925.108 51.042 925.582 51.186 926.17 51.186C926.746 51.186 927.166 51.066 927.43 50.826C927.694 50.586 927.826 50.31 927.826 49.998C927.826 49.542 927.64 49.236 927.268 49.08C926.908 48.912 926.404 48.762 925.756 48.63C925.252 48.522 924.748 48.378 924.244 48.198C923.752 48.018 923.338 47.766 923.002 47.442C922.678 47.106 922.516 46.656 922.516 46.092C922.516 45.312 922.816 44.664 923.416 44.148C924.016 43.62 924.856 43.356 925.936 43.356C926.932 43.356 927.736 43.596 928.348 44.076C928.972 44.556 929.338 45.234 929.446 46.11H927.61C927.55 45.726 927.37 45.426 927.07 45.21C926.782 44.994 926.392 44.886 925.9 44.886C925.42 44.886 925.048 44.988 924.784 45.192C924.52 45.384 924.388 45.636 924.388 45.948C924.388 46.26 924.568 46.506 924.928 46.686C925.3 46.866 925.786 47.028 926.386 47.172C926.986 47.304 927.538 47.46 928.042 47.64C928.558 47.808 928.972 48.06 929.284 48.396C929.596 48.732 929.752 49.224 929.752 49.872C929.764 50.688 929.446 51.366 928.798 51.906C928.162 52.446 927.292 52.716 926.188 52.716ZM936.011 52.716C935.159 52.716 934.391 52.524 933.707 52.14C933.035 51.744 932.501 51.198 932.105 50.502C931.709 49.794 931.511 48.972 931.511 48.036C931.511 47.1 931.709 46.284 932.105 45.588C932.513 44.88 933.059 44.334 933.743 43.95C934.427 43.554 935.189 43.356 936.029 43.356C936.881 43.356 937.643 43.554 938.315 43.95C938.999 44.334 939.539 44.88 939.935 45.588C940.343 46.284 940.547 47.1 940.547 48.036C940.547 48.972 940.343 49.794 939.935 50.502C939.539 51.198 938.999 51.744 938.315 52.14C937.631 52.524 936.863 52.716 936.011 52.716ZM936.011 51.078C936.467 51.078 936.887 50.964 937.271 50.736C937.667 50.508 937.985 50.172 938.225 49.728C938.465 49.272 938.585 48.708 938.585 48.036C938.585 47.364 938.465 46.806 938.225 46.362C937.997 45.906 937.685 45.564 937.289 45.336C936.905 45.108 936.485 44.994 936.029 44.994C935.573 44.994 935.147 45.108 934.751 45.336C934.367 45.564 934.055 45.906 933.815 46.362C933.575 46.806 933.455 47.364 933.455 48.036C933.455 48.708 933.575 49.272 933.815 49.728C934.055 50.172 934.367 50.508 934.751 50.736C935.135 50.964 935.555 51.078 936.011 51.078ZM942.61 52.5V39.54H944.518V52.5H942.61ZM950.229 52.716C949.149 52.716 948.297 52.38 947.673 51.708C947.061 51.036 946.755 50.034 946.755 48.702V43.572H948.663V48.504C948.663 50.232 949.371 51.096 950.787 51.096C951.495 51.096 952.077 50.844 952.533 50.34C952.989 49.836 953.217 49.116 953.217 48.18V43.572H955.125V52.5H953.433L953.289 50.934C953.013 51.486 952.605 51.924 952.065 52.248C951.537 52.56 950.925 52.716 950.229 52.716ZM961.782 52.716C960.906 52.716 960.12 52.518 959.424 52.122C958.74 51.726 958.2 51.18 957.804 50.484C957.42 49.776 957.228 48.96 957.228 48.036C957.228 47.112 957.42 46.302 957.804 45.606C958.2 44.898 958.74 44.346 959.424 43.95C960.12 43.554 960.906 43.356 961.782 43.356C962.886 43.356 963.81 43.644 964.554 44.22C965.31 44.796 965.796 45.576 966.012 46.56H964.014C963.894 46.068 963.63 45.684 963.222 45.408C962.814 45.132 962.334 44.994 961.782 44.994C961.314 44.994 960.882 45.114 960.486 45.354C960.09 45.582 959.772 45.924 959.532 46.38C959.292 46.824 959.172 47.376 959.172 48.036C959.172 48.696 959.292 49.254 959.532 49.71C959.772 50.154 960.09 50.496 960.486 50.736C960.882 50.976 961.314 51.096 961.782 51.096C962.334 51.096 962.814 50.958 963.222 50.682C963.63 50.406 963.894 50.016 964.014 49.512H966.012C965.808 50.472 965.328 51.246 964.572 51.834C963.816 52.422 962.886 52.716 961.782 52.716ZM960.324 57.234V56.082H962.16C962.892 56.082 963.258 55.83 963.258 55.326C963.258 54.858 962.892 54.624 962.16 54.624H961.17V52.41H962.394V53.544C963.042 53.532 963.588 53.676 964.032 53.976C964.488 54.276 964.716 54.738 964.716 55.362C964.716 55.974 964.494 56.436 964.05 56.748C963.618 57.072 963.09 57.234 962.466 57.234H960.324ZM971.105 52.716C970.349 52.716 969.725 52.59 969.233 52.338C968.741 52.086 968.375 51.756 968.135 51.348C967.895 50.928 967.775 50.472 967.775 49.98C967.775 49.116 968.111 48.432 968.783 47.928C969.455 47.424 970.415 47.172 971.663 47.172H974.003V47.01C974.003 46.314 973.811 45.792 973.427 45.444C973.055 45.096 972.569 44.922 971.969 44.922C971.441 44.922 970.979 45.054 970.583 45.318C970.199 45.57 969.965 45.948 969.881 46.452H967.973C968.033 45.804 968.249 45.252 968.621 44.796C969.005 44.328 969.485 43.974 970.061 43.734C970.649 43.482 971.291 43.356 971.987 43.356C973.235 43.356 974.201 43.686 974.885 44.346C975.569 44.994 975.911 45.882 975.911 47.01V52.5H974.255L974.093 50.97C973.841 51.462 973.475 51.876 972.995 52.212C972.515 52.548 971.885 52.716 971.105 52.716ZM971.483 51.168C971.999 51.168 972.431 51.048 972.779 50.808C973.139 50.556 973.415 50.226 973.607 49.818C973.811 49.41 973.937 48.96 973.985 48.468H971.861C971.105 48.468 970.565 48.6 970.241 48.864C969.929 49.128 969.773 49.458 969.773 49.854C969.773 50.262 969.923 50.586 970.223 50.826C970.535 51.054 970.955 51.168 971.483 51.168ZM972.941 42.6C972.617 42.6 972.341 42.534 972.113 42.402C971.885 42.258 971.669 42.12 971.465 41.988C971.273 41.844 971.057 41.772 970.817 41.772C970.373 41.772 970.115 42.042 970.043 42.582H968.981C969.089 41.886 969.305 41.376 969.629 41.052C969.965 40.716 970.385 40.548 970.889 40.548C971.213 40.548 971.489 40.62 971.717 40.764C971.945 40.896 972.155 41.034 972.347 41.178C972.551 41.31 972.779 41.376 973.031 41.376C973.235 41.376 973.403 41.31 973.535 41.178C973.679 41.046 973.769 40.842 973.805 40.566H974.867C974.771 41.25 974.549 41.76 974.201 42.096C973.865 42.432 973.445 42.6 972.941 42.6ZM982.312 52.716C981.46 52.716 980.692 52.524 980.008 52.14C979.336 51.744 978.802 51.198 978.406 50.502C978.01 49.794 977.812 48.972 977.812 48.036C977.812 47.1 978.01 46.284 978.406 45.588C978.814 44.88 979.36 44.334 980.044 43.95C980.728 43.554 981.49 43.356 982.33 43.356C983.182 43.356 983.944 43.554 984.616 43.95C985.3 44.334 985.84 44.88 986.236 45.588C986.644 46.284 986.848 47.1 986.848 48.036C986.848 48.972 986.644 49.794 986.236 50.502C985.84 51.198 985.3 51.744 984.616 52.14C983.932 52.524 983.164 52.716 982.312 52.716ZM982.312 51.078C982.768 51.078 983.188 50.964 983.572 50.736C983.968 50.508 984.286 50.172 984.526 49.728C984.766 49.272 984.886 48.708 984.886 48.036C984.886 47.364 984.766 46.806 984.526 46.362C984.298 45.906 983.986 45.564 983.59 45.336C983.206 45.108 982.786 44.994 982.33 44.994C981.874 44.994 981.448 45.108 981.052 45.336C980.668 45.564 980.356 45.906 980.116 46.362C979.876 46.806 979.756 47.364 979.756 48.036C979.756 48.708 979.876 49.272 980.116 49.728C980.356 50.172 980.668 50.508 981.052 50.736C981.436 50.964 981.856 51.078 982.312 51.078Z" fill="white"/>
<path d="M1021.78 52.5V39.9H1026.19C1027.17 39.9 1027.99 40.068 1028.64 40.404C1029.28 40.728 1029.76 41.178 1030.08 41.754C1030.4 42.318 1030.56 42.96 1030.56 43.68C1030.56 44.364 1030.41 44.994 1030.09 45.57C1029.79 46.134 1029.32 46.584 1028.67 46.92C1028.02 47.256 1027.2 47.424 1026.19 47.424H1023.69V52.5H1021.78ZM1023.69 45.858H1026.1C1027 45.858 1027.64 45.666 1028.02 45.282C1028.42 44.886 1028.62 44.352 1028.62 43.68C1028.62 42.984 1028.42 42.444 1028.02 42.06C1027.64 41.664 1027 41.466 1026.1 41.466H1023.69V45.858ZM1032.38 52.5V43.572H1034.09L1034.25 45.264C1034.56 44.676 1034.99 44.214 1035.54 43.878C1036.11 43.53 1036.79 43.356 1037.58 43.356V45.354H1037.06C1036.53 45.354 1036.05 45.444 1035.63 45.624C1035.23 45.792 1034.9 46.086 1034.64 46.506C1034.4 46.914 1034.28 47.484 1034.28 48.216V52.5H1032.38ZM1043.14 52.716C1042.27 52.716 1041.49 52.524 1040.8 52.14C1040.13 51.744 1039.6 51.198 1039.22 50.502C1038.84 49.806 1038.64 48.996 1038.64 48.072C1038.64 47.136 1038.83 46.314 1039.2 45.606C1039.59 44.898 1040.11 44.346 1040.79 43.95C1041.47 43.554 1042.26 43.356 1043.16 43.356C1044.04 43.356 1044.8 43.554 1045.45 43.95C1046.1 44.334 1046.6 44.85 1046.96 45.498C1047.32 46.146 1047.5 46.86 1047.5 47.64C1047.5 47.76 1047.49 47.892 1047.48 48.036C1047.48 48.168 1047.48 48.318 1047.46 48.486H1040.52C1040.58 49.35 1040.86 50.01 1041.36 50.466C1041.88 50.91 1042.47 51.132 1043.14 51.132C1043.68 51.132 1044.13 51.012 1044.49 50.772C1044.87 50.52 1045.14 50.184 1045.32 49.764H1047.23C1046.99 50.604 1046.51 51.306 1045.79 51.87C1045.08 52.434 1044.2 52.716 1043.14 52.716ZM1043.14 44.922C1042.51 44.922 1041.94 45.114 1041.45 45.498C1040.96 45.87 1040.66 46.434 1040.55 47.19H1045.59C1045.56 46.494 1045.31 45.942 1044.85 45.534C1044.4 45.126 1043.83 44.922 1043.14 44.922ZM1053.71 52.716C1052.83 52.716 1052.05 52.518 1051.35 52.122C1050.67 51.726 1050.13 51.18 1049.73 50.484C1049.35 49.776 1049.16 48.96 1049.16 48.036C1049.16 47.112 1049.35 46.302 1049.73 45.606C1050.13 44.898 1050.67 44.346 1051.35 43.95C1052.05 43.554 1052.83 43.356 1053.71 43.356C1054.81 43.356 1055.74 43.644 1056.48 44.22C1057.24 44.796 1057.72 45.576 1057.94 46.56H1055.94C1055.82 46.068 1055.56 45.684 1055.15 45.408C1054.74 45.132 1054.26 44.994 1053.71 44.994C1053.24 44.994 1052.81 45.114 1052.41 45.354C1052.02 45.582 1051.7 45.924 1051.46 46.38C1051.22 46.824 1051.1 47.376 1051.1 48.036C1051.1 48.696 1051.22 49.254 1051.46 49.71C1051.7 50.154 1052.02 50.496 1052.41 50.736C1052.81 50.976 1053.24 51.096 1053.71 51.096C1054.26 51.096 1054.74 50.958 1055.15 50.682C1055.56 50.406 1055.82 50.016 1055.94 49.512H1057.94C1057.74 50.472 1057.26 51.246 1056.5 51.834C1055.74 52.422 1054.81 52.716 1053.71 52.716ZM1052.25 57.234V56.082H1054.09C1054.82 56.082 1055.19 55.83 1055.19 55.326C1055.19 54.858 1054.82 54.624 1054.09 54.624H1053.1V52.41H1054.32V53.544C1054.97 53.532 1055.52 53.676 1055.96 53.976C1056.42 54.276 1056.64 54.738 1056.64 55.362C1056.64 55.974 1056.42 56.436 1055.98 56.748C1055.55 57.072 1055.02 57.234 1054.39 57.234H1052.25ZM1064.18 52.716C1063.33 52.716 1062.56 52.524 1061.88 52.14C1061.21 51.744 1060.67 51.198 1060.28 50.502C1059.88 49.794 1059.68 48.972 1059.68 48.036C1059.68 47.1 1059.88 46.284 1060.28 45.588C1060.69 44.88 1061.23 44.334 1061.92 43.95C1062.6 43.554 1063.36 43.356 1064.2 43.356C1065.05 43.356 1065.82 43.554 1066.49 43.95C1067.17 44.334 1067.71 44.88 1068.11 45.588C1068.52 46.284 1068.72 47.1 1068.72 48.036C1068.72 48.972 1068.52 49.794 1068.11 50.502C1067.71 51.198 1067.17 51.744 1066.49 52.14C1065.8 52.524 1065.04 52.716 1064.18 52.716ZM1064.18 51.078C1064.64 51.078 1065.06 50.964 1065.44 50.736C1065.84 50.508 1066.16 50.172 1066.4 49.728C1066.64 49.272 1066.76 48.708 1066.76 48.036C1066.76 47.364 1066.64 46.806 1066.4 46.362C1066.17 45.906 1065.86 45.564 1065.46 45.336C1065.08 45.108 1064.66 44.994 1064.2 44.994C1063.75 44.994 1063.32 45.108 1062.92 45.336C1062.54 45.564 1062.23 45.906 1061.99 46.362C1061.75 46.806 1061.63 47.364 1061.63 48.036C1061.63 48.708 1061.75 49.272 1061.99 49.728C1062.23 50.172 1062.54 50.508 1062.92 50.736C1063.31 50.964 1063.73 51.078 1064.18 51.078ZM1074.35 52.716C1073.22 52.716 1072.29 52.44 1071.56 51.888C1070.83 51.336 1070.41 50.604 1070.3 49.692H1072.22C1072.32 50.1 1072.55 50.454 1072.91 50.754C1073.27 51.042 1073.74 51.186 1074.33 51.186C1074.91 51.186 1075.33 51.066 1075.59 50.826C1075.85 50.586 1075.99 50.31 1075.99 49.998C1075.99 49.542 1075.8 49.236 1075.43 49.08C1075.07 48.912 1074.56 48.762 1073.92 48.63C1073.41 48.522 1072.91 48.378 1072.4 48.198C1071.91 48.018 1071.5 47.766 1071.16 47.442C1070.84 47.106 1070.68 46.656 1070.68 46.092C1070.68 45.312 1070.98 44.664 1071.58 44.148C1072.18 43.62 1073.02 43.356 1074.1 43.356C1075.09 43.356 1075.9 43.596 1076.51 44.076C1077.13 44.556 1077.5 45.234 1077.61 46.11H1075.77C1075.71 45.726 1075.53 45.426 1075.23 45.21C1074.94 44.994 1074.55 44.886 1074.06 44.886C1073.58 44.886 1073.21 44.988 1072.94 45.192C1072.68 45.384 1072.55 45.636 1072.55 45.948C1072.55 46.26 1072.73 46.506 1073.09 46.686C1073.46 46.866 1073.95 47.028 1074.55 47.172C1075.15 47.304 1075.7 47.46 1076.2 47.64C1076.72 47.808 1077.13 48.06 1077.44 48.396C1077.76 48.732 1077.91 49.224 1077.91 49.872C1077.92 50.688 1077.61 51.366 1076.96 51.906C1076.32 52.446 1075.45 52.716 1074.35 52.716Z" fill="white"/>
<rect x="1312" y="16" width="126" height="60" rx="8" fill="#FFE492"/>
<path d="M1353.44 52.5V39.4091H1355.41V50.7997H1361.35V52.5H1353.44ZM1367.22 52.6982C1366.3 52.6982 1365.5 52.4872 1364.81 52.0653C1364.12 51.6435 1363.59 51.0533 1363.21 50.2947C1362.83 49.5362 1362.64 48.6499 1362.64 47.6357C1362.64 46.6172 1362.83 45.7266 1363.21 44.9638C1363.59 44.201 1364.12 43.6087 1364.81 43.1868C1365.5 42.7649 1366.3 42.554 1367.22 42.554C1368.14 42.554 1368.94 42.7649 1369.63 43.1868C1370.32 43.6087 1370.85 44.201 1371.23 44.9638C1371.61 45.7266 1371.8 46.6172 1371.8 47.6357C1371.8 48.6499 1371.61 49.5362 1371.23 50.2947C1370.85 51.0533 1370.32 51.6435 1369.63 52.0653C1368.94 52.4872 1368.14 52.6982 1367.22 52.6982ZM1367.23 51.0938C1367.82 51.0938 1368.32 50.9361 1368.71 50.6207C1369.1 50.3054 1369.39 49.8857 1369.58 49.3615C1369.77 48.8374 1369.87 48.2599 1369.87 47.6293C1369.87 47.0028 1369.77 46.4276 1369.58 45.9034C1369.39 45.375 1369.1 44.951 1368.71 44.6314C1368.32 44.3118 1367.82 44.152 1367.23 44.152C1366.63 44.152 1366.13 44.3118 1365.73 44.6314C1365.34 44.951 1365.05 45.375 1364.86 45.9034C1364.67 46.4276 1364.57 47.0028 1364.57 47.6293C1364.57 48.2599 1364.67 48.8374 1364.86 49.3615C1365.05 49.8857 1365.34 50.3054 1365.73 50.6207C1366.13 50.9361 1366.63 51.0938 1367.23 51.0938ZM1377.69 56.3864C1376.91 56.3864 1376.24 56.2841 1375.67 56.0795C1375.12 55.875 1374.66 55.6044 1374.31 55.2678C1373.95 54.9311 1373.69 54.5625 1373.51 54.1619L1375.16 53.4844C1375.27 53.6719 1375.42 53.87 1375.62 54.0788C1375.81 54.2919 1376.08 54.473 1376.41 54.6222C1376.75 54.7713 1377.18 54.8459 1377.71 54.8459C1378.43 54.8459 1379.03 54.669 1379.5 54.3153C1379.98 53.9659 1380.21 53.4077 1380.21 52.6406V50.7102H1380.09C1379.98 50.919 1379.81 51.1513 1379.59 51.407C1379.38 51.6626 1379.08 51.8842 1378.71 52.0717C1378.33 52.2592 1377.85 52.353 1377.25 52.353C1376.47 52.353 1375.77 52.1719 1375.15 51.8097C1374.53 51.4432 1374.04 50.9041 1373.68 50.1925C1373.32 49.4766 1373.14 48.5966 1373.14 47.5526C1373.14 46.5085 1373.32 45.6136 1373.67 44.8679C1374.03 44.1222 1374.52 43.5511 1375.14 43.1548C1375.77 42.7543 1376.47 42.554 1377.26 42.554C1377.87 42.554 1378.36 42.6562 1378.74 42.8608C1379.11 43.0611 1379.4 43.2955 1379.61 43.5639C1379.82 43.8324 1379.99 44.0689 1380.1 44.2734H1380.24V42.6818H1382.12V52.7173C1382.12 53.5611 1381.92 54.2536 1381.53 54.7947C1381.14 55.3359 1380.61 55.7365 1379.94 55.9964C1379.27 56.2564 1378.52 56.3864 1377.69 56.3864ZM1377.67 50.7678C1378.22 50.7678 1378.68 50.6399 1379.06 50.3842C1379.44 50.1243 1379.73 49.7536 1379.93 49.272C1380.13 48.7862 1380.23 48.2045 1380.23 47.527C1380.23 46.8665 1380.13 46.2848 1379.94 45.782C1379.74 45.2791 1379.45 44.8871 1379.07 44.6058C1378.69 44.3203 1378.23 44.1776 1377.67 44.1776C1377.09 44.1776 1376.61 44.3267 1376.23 44.625C1375.85 44.919 1375.56 45.3196 1375.36 45.8267C1375.17 46.3338 1375.07 46.9006 1375.07 47.527C1375.07 48.1705 1375.17 48.7351 1375.37 49.2209C1375.56 49.7067 1375.85 50.0859 1376.24 50.3587C1376.62 50.6314 1377.1 50.7678 1377.67 50.7678ZM1384.32 52.5V42.6818H1386.23V52.5H1384.32ZM1385.29 41.1669C1384.95 41.1669 1384.67 41.0561 1384.43 40.8345C1384.19 40.6087 1384.08 40.3402 1384.08 40.0291C1384.08 39.7138 1384.19 39.4453 1384.43 39.2237C1384.67 38.9979 1384.95 38.8849 1385.29 38.8849C1385.62 38.8849 1385.9 38.9979 1386.14 39.2237C1386.37 39.4453 1386.49 39.7138 1386.49 40.0291C1386.49 40.3402 1386.37 40.6087 1386.14 40.8345C1385.9 41.0561 1385.62 41.1669 1385.29 41.1669ZM1390.35 46.6705V52.5H1388.44V42.6818H1390.28V44.2798H1390.4C1390.62 43.7599 1390.98 43.3423 1391.46 43.027C1391.95 42.7116 1392.56 42.554 1393.29 42.554C1393.96 42.554 1394.55 42.6946 1395.05 42.9759C1395.55 43.2528 1395.94 43.6662 1396.22 44.2159C1396.5 44.7656 1396.64 45.4453 1396.64 46.255V52.5H1394.73V46.4851C1394.73 45.7734 1394.54 45.2173 1394.17 44.8168C1393.8 44.4119 1393.29 44.2095 1392.64 44.2095C1392.2 44.2095 1391.8 44.3054 1391.46 44.4972C1391.12 44.6889 1390.85 44.9702 1390.65 45.3409C1390.45 45.7074 1390.35 46.1506 1390.35 46.6705Z" fill="#043873"/>
<rect x="1462" y="16" width="238" height="60" rx="8" fill="#4F9CF9"/>
<path d="M1487.44 52.5V39.4091H1495.65V41.1094H1489.41V45.098H1495.22V46.7919H1489.41V50.7997H1495.72V52.5H1487.44ZM1499.68 46.6705V52.5H1497.77V42.6818H1499.61V44.2798H1499.73C1499.95 43.7599 1500.31 43.3423 1500.79 43.027C1501.27 42.7116 1501.88 42.554 1502.62 42.554C1503.29 42.554 1503.88 42.6946 1504.38 42.9759C1504.88 43.2528 1505.27 43.6662 1505.55 44.2159C1505.83 44.7656 1505.97 45.4453 1505.97 46.255V52.5H1504.05V46.4851C1504.05 45.7734 1503.87 45.2173 1503.5 44.8168C1503.13 44.4119 1502.62 44.2095 1501.97 44.2095C1501.53 44.2095 1501.13 44.3054 1500.79 44.4972C1500.45 44.6889 1500.18 44.9702 1499.98 45.3409C1499.78 45.7074 1499.68 46.1506 1499.68 46.6705ZM1512.75 42.6818V44.2159H1507.39V42.6818H1512.75ZM1508.83 40.3295H1510.74V49.6172C1510.74 49.9879 1510.79 50.267 1510.9 50.4545C1511.01 50.6378 1511.16 50.7635 1511.33 50.8317C1511.51 50.8956 1511.71 50.9276 1511.91 50.9276C1512.07 50.9276 1512.2 50.9169 1512.32 50.8956C1512.43 50.8743 1512.52 50.8572 1512.59 50.8445L1512.93 52.4233C1512.82 52.4659 1512.66 52.5085 1512.46 52.5511C1512.25 52.598 1512 52.6236 1511.69 52.6278C1511.19 52.6364 1510.72 52.5469 1510.28 52.3594C1509.85 52.1719 1509.5 51.8821 1509.23 51.4901C1508.96 51.098 1508.83 50.6058 1508.83 50.0135V40.3295ZM1514.51 52.5V42.6818H1516.35V44.2415H1516.46C1516.63 43.7131 1516.95 43.2976 1517.4 42.995C1517.86 42.6882 1518.37 42.5348 1518.95 42.5348C1519.07 42.5348 1519.21 42.5391 1519.37 42.5476C1519.54 42.5561 1519.67 42.5668 1519.76 42.5795V44.4077C1519.68 44.3864 1519.55 44.3629 1519.35 44.3374C1519.15 44.3075 1518.96 44.2926 1518.76 44.2926C1518.31 44.2926 1517.91 44.3885 1517.55 44.5803C1517.21 44.7678 1516.93 45.0298 1516.72 45.3665C1516.52 45.6989 1516.42 46.0781 1516.42 46.5043V52.5H1514.51ZM1524.93 52.6982C1523.97 52.6982 1523.13 52.4915 1522.43 52.0781C1521.74 51.6605 1521.2 51.0746 1520.82 50.3203C1520.45 49.5618 1520.26 48.6733 1520.26 47.6548C1520.26 46.6491 1520.45 45.7628 1520.82 44.9957C1521.2 44.2287 1521.73 43.63 1522.41 43.1996C1523.09 42.7692 1523.89 42.554 1524.8 42.554C1525.35 42.554 1525.89 42.6456 1526.41 42.8288C1526.93 43.0121 1527.4 43.2997 1527.81 43.6918C1528.22 44.0838 1528.55 44.593 1528.79 45.2195C1529.03 45.8416 1529.15 46.598 1529.15 47.4886V48.1662H1521.34V46.7344H1527.27C1527.27 46.2315 1527.17 45.7862 1526.97 45.3984C1526.76 45.0064 1526.47 44.6974 1526.1 44.4716C1525.74 44.2457 1525.31 44.1328 1524.81 44.1328C1524.28 44.1328 1523.81 44.2649 1523.41 44.5291C1523.01 44.7891 1522.7 45.13 1522.49 45.5518C1522.27 45.9695 1522.17 46.4233 1522.17 46.9134V48.032C1522.17 48.6882 1522.28 49.2464 1522.51 49.7067C1522.75 50.1669 1523.07 50.5185 1523.49 50.7614C1523.91 51 1524.39 51.1193 1524.95 51.1193C1525.32 51.1193 1525.65 51.0682 1525.94 50.9659C1526.24 50.8594 1526.5 50.7017 1526.72 50.4929C1526.93 50.2841 1527.1 50.0263 1527.22 49.7195L1529.02 50.0455C1528.88 50.5781 1528.62 51.0447 1528.24 51.4453C1527.87 51.8416 1527.41 52.1506 1526.84 52.3722C1526.29 52.5895 1525.65 52.6982 1524.93 52.6982ZM1539.45 52.6982C1538.5 52.6982 1537.68 52.483 1536.99 52.0526C1536.31 51.6179 1535.79 51.0192 1535.42 50.2564C1535.05 49.4936 1534.87 48.62 1534.87 47.6357C1534.87 46.6385 1535.06 45.7585 1535.43 44.9957C1535.81 44.2287 1536.34 43.63 1537.02 43.1996C1537.7 42.7692 1538.5 42.554 1539.43 42.554C1540.17 42.554 1540.84 42.6925 1541.42 42.9695C1542 43.2422 1542.48 43.6257 1542.83 44.12C1543.2 44.6143 1543.41 45.1918 1543.48 45.8523H1541.62C1541.52 45.392 1541.28 44.9957 1540.92 44.6634C1540.55 44.331 1540.07 44.1648 1539.46 44.1648C1538.93 44.1648 1538.46 44.3054 1538.06 44.5866C1537.66 44.8636 1537.35 45.2599 1537.13 45.7756C1536.91 46.2869 1536.8 46.892 1536.8 47.5909C1536.8 48.3068 1536.91 48.9247 1537.13 49.4446C1537.34 49.9645 1537.65 50.3672 1538.05 50.6527C1538.45 50.9382 1538.92 51.081 1539.46 51.081C1539.82 51.081 1540.15 51.0149 1540.44 50.8828C1540.74 50.7464 1540.99 50.5526 1541.19 50.3011C1541.4 50.0497 1541.54 49.7472 1541.62 49.3935H1543.48C1543.41 50.0284 1543.2 50.5952 1542.86 51.0938C1542.51 51.5923 1542.05 51.9844 1541.47 52.2699C1540.9 52.5554 1540.22 52.6982 1539.45 52.6982ZM1549.3 52.6982C1548.38 52.6982 1547.58 52.4872 1546.89 52.0653C1546.2 51.6435 1545.67 51.0533 1545.29 50.2947C1544.91 49.5362 1544.72 48.6499 1544.72 47.6357C1544.72 46.6172 1544.91 45.7266 1545.29 44.9638C1545.67 44.201 1546.2 43.6087 1546.89 43.1868C1547.58 42.7649 1548.38 42.554 1549.3 42.554C1550.22 42.554 1551.02 42.7649 1551.71 43.1868C1552.39 43.6087 1552.93 44.201 1553.31 44.9638C1553.69 45.7266 1553.88 46.6172 1553.88 47.6357C1553.88 48.6499 1553.69 49.5362 1553.31 50.2947C1552.93 51.0533 1552.39 51.6435 1551.71 52.0653C1551.02 52.4872 1550.22 52.6982 1549.3 52.6982ZM1549.31 51.0938C1549.9 51.0938 1550.4 50.9361 1550.79 50.6207C1551.18 50.3054 1551.47 49.8857 1551.66 49.3615C1551.85 48.8374 1551.95 48.2599 1551.95 47.6293C1551.95 47.0028 1551.85 46.4276 1551.66 45.9034C1551.47 45.375 1551.18 44.951 1550.79 44.6314C1550.4 44.3118 1549.9 44.152 1549.31 44.152C1548.7 44.152 1548.21 44.3118 1547.81 44.6314C1547.42 44.951 1547.13 45.375 1546.93 45.9034C1546.75 46.4276 1546.65 47.0028 1546.65 47.6293C1546.65 48.2599 1546.75 48.8374 1546.93 49.3615C1547.13 49.8857 1547.42 50.3054 1547.81 50.6207C1548.21 50.9361 1548.7 51.0938 1549.31 51.0938ZM1555.65 52.5V42.6818H1557.48V44.2798H1557.6C1557.81 43.7386 1558.14 43.3168 1558.61 43.0142C1559.07 42.7074 1559.63 42.554 1560.28 42.554C1560.93 42.554 1561.48 42.7074 1561.93 43.0142C1562.37 43.321 1562.7 43.7429 1562.92 44.2798H1563.02C1563.25 43.7557 1563.63 43.3381 1564.14 43.027C1564.65 42.7116 1565.26 42.554 1565.97 42.554C1566.86 42.554 1567.58 42.8331 1568.15 43.3913C1568.71 43.9496 1569 44.7912 1569 45.9162V52.5H1567.08V46.0952C1567.08 45.4304 1566.9 44.9489 1566.54 44.6506C1566.18 44.3523 1565.75 44.2031 1565.24 44.2031C1564.62 44.2031 1564.14 44.3949 1563.79 44.7784C1563.45 45.1577 1563.27 45.6456 1563.27 46.2422V52.5H1561.37V45.9737C1561.37 45.4411 1561.2 45.0128 1560.87 44.6889C1560.54 44.3651 1560.11 44.2031 1559.57 44.2031C1559.21 44.2031 1558.88 44.299 1558.57 44.4908C1558.27 44.6783 1558.02 44.9403 1557.84 45.277C1557.65 45.6136 1557.56 46.0036 1557.56 46.4467V52.5H1555.65ZM1582.96 45.0788L1581.23 45.3857C1581.15 45.1641 1581.04 44.9531 1580.88 44.7528C1580.73 44.5526 1580.52 44.3885 1580.25 44.2607C1579.99 44.1328 1579.66 44.0689 1579.26 44.0689C1578.72 44.0689 1578.27 44.1903 1577.91 44.4332C1577.55 44.6719 1577.37 44.9808 1577.37 45.3601C1577.37 45.6882 1577.49 45.9524 1577.73 46.1527C1577.97 46.353 1578.36 46.517 1578.91 46.6449L1580.47 47.0028C1581.37 47.2116 1582.04 47.5334 1582.49 47.968C1582.93 48.4027 1583.15 48.9673 1583.15 49.6619C1583.15 50.25 1582.98 50.7741 1582.64 51.2344C1582.3 51.6903 1581.83 52.0483 1581.23 52.3082C1580.62 52.5682 1579.93 52.6982 1579.14 52.6982C1578.04 52.6982 1577.14 52.4638 1576.44 51.995C1575.75 51.522 1575.32 50.8509 1575.17 49.9815L1577.01 49.7003C1577.13 50.1818 1577.37 50.5462 1577.72 50.7933C1578.08 51.0362 1578.55 51.1577 1579.12 51.1577C1579.75 51.1577 1580.25 51.0277 1580.62 50.7678C1581 50.5036 1581.19 50.1818 1581.19 49.8026C1581.19 49.4957 1581.07 49.2379 1580.84 49.0291C1580.62 48.8203 1580.27 48.6626 1579.8 48.5561L1578.14 48.1918C1577.22 47.983 1576.54 47.6506 1576.11 47.1946C1575.67 46.7386 1575.45 46.1612 1575.45 45.4624C1575.45 44.8828 1575.62 44.3757 1575.94 43.9411C1576.26 43.5064 1576.71 43.1676 1577.28 42.9247C1577.85 42.6776 1578.51 42.554 1579.24 42.554C1580.31 42.554 1581.14 42.7841 1581.75 43.2443C1582.36 43.7003 1582.76 44.3118 1582.96 45.0788ZM1591.11 48.4283V42.6818H1593.03V52.5H1591.15V50.7997H1591.05C1590.82 51.3239 1590.46 51.7607 1589.96 52.1101C1589.47 52.4553 1588.85 52.6278 1588.11 52.6278C1587.48 52.6278 1586.92 52.4893 1586.44 52.2124C1585.96 51.9311 1585.58 51.5156 1585.3 50.9659C1585.03 50.4162 1584.89 49.7365 1584.89 48.9268V42.6818H1586.8V48.6967C1586.8 49.3658 1586.99 49.8984 1587.36 50.2947C1587.73 50.6911 1588.21 50.8892 1588.8 50.8892C1589.16 50.8892 1589.52 50.7997 1589.87 50.6207C1590.23 50.4418 1590.52 50.1712 1590.76 49.8089C1591 49.4467 1591.11 48.9865 1591.11 48.4283ZM1598.09 52.7173C1597.47 52.7173 1596.91 52.6023 1596.41 52.3722C1595.9 52.1378 1595.5 51.799 1595.21 51.3558C1594.92 50.9126 1594.78 50.3693 1594.78 49.7259C1594.78 49.1719 1594.88 48.7159 1595.1 48.358C1595.31 48 1595.6 47.7166 1595.96 47.5078C1596.32 47.299 1596.73 47.1413 1597.17 47.0348C1597.62 46.9283 1598.08 46.8473 1598.54 46.7919C1599.13 46.7237 1599.61 46.6683 1599.97 46.6257C1600.34 46.5788 1600.61 46.5043 1600.77 46.402C1600.94 46.2997 1601.02 46.1335 1601.02 45.9034V45.8587C1601.02 45.3004 1600.86 44.8679 1600.55 44.5611C1600.24 44.2543 1599.77 44.1009 1599.15 44.1009C1598.51 44.1009 1598 44.2436 1597.63 44.5291C1597.27 44.8104 1597.01 45.1236 1596.87 45.4688L1595.08 45.0597C1595.29 44.4631 1595.6 43.9815 1596.01 43.6151C1596.42 43.2443 1596.9 42.9759 1597.44 42.8097C1597.97 42.6392 1598.54 42.554 1599.13 42.554C1599.52 42.554 1599.94 42.6009 1600.38 42.6946C1600.82 42.7841 1601.23 42.9503 1601.62 43.1932C1602 43.4361 1602.32 43.7834 1602.57 44.2351C1602.82 44.6825 1602.94 45.2642 1602.94 45.9801V52.5H1601.07V51.1577H1601C1600.87 51.4048 1600.69 51.6477 1600.44 51.8864C1600.19 52.125 1599.87 52.3232 1599.49 52.4808C1599.1 52.6385 1598.63 52.7173 1598.09 52.7173ZM1598.51 51.1832C1599.04 51.1832 1599.49 51.0788 1599.86 50.87C1600.24 50.6612 1600.53 50.3885 1600.73 50.0518C1600.93 49.7109 1601.03 49.3466 1601.03 48.9588V47.6932C1600.96 47.7614 1600.83 47.8253 1600.63 47.8849C1600.44 47.9403 1600.22 47.9893 1599.97 48.032C1599.73 48.0703 1599.48 48.1065 1599.25 48.1406C1599.02 48.1705 1598.82 48.196 1598.66 48.2173C1598.29 48.2642 1597.95 48.343 1597.65 48.4538C1597.34 48.5646 1597.1 48.7244 1596.92 48.9332C1596.74 49.1378 1596.65 49.4105 1596.65 49.7514C1596.65 50.2244 1596.82 50.5824 1597.17 50.8253C1597.52 51.0639 1597.97 51.1832 1598.51 51.1832ZM1613.66 52.6982C1612.71 52.6982 1611.9 52.483 1611.21 52.0526C1610.53 51.6179 1610 51.0192 1609.64 50.2564C1609.27 49.4936 1609.09 48.62 1609.09 47.6357C1609.09 46.6385 1609.27 45.7585 1609.65 44.9957C1610.02 44.2287 1610.55 43.63 1611.23 43.1996C1611.92 42.7692 1612.72 42.554 1613.64 42.554C1614.39 42.554 1615.05 42.6925 1615.64 42.9695C1616.22 43.2422 1616.69 43.6257 1617.05 44.12C1617.41 44.6143 1617.63 45.1918 1617.7 45.8523H1615.84C1615.73 45.392 1615.5 44.9957 1615.13 44.6634C1614.77 44.331 1614.29 44.1648 1613.68 44.1648C1613.14 44.1648 1612.68 44.3054 1612.28 44.5866C1611.88 44.8636 1611.57 45.2599 1611.35 45.7756C1611.13 46.2869 1611.02 46.892 1611.02 47.5909C1611.02 48.3068 1611.13 48.9247 1611.34 49.4446C1611.56 49.9645 1611.87 50.3672 1612.26 50.6527C1612.66 50.9382 1613.14 51.081 1613.68 51.081C1614.04 51.081 1614.37 51.0149 1614.66 50.8828C1614.96 50.7464 1615.21 50.5526 1615.41 50.3011C1615.61 50.0497 1615.76 49.7472 1615.84 49.3935H1617.7C1617.63 50.0284 1617.42 50.5952 1617.08 51.0938C1616.73 51.5923 1616.27 51.9844 1615.69 52.2699C1615.11 52.5554 1614.44 52.6982 1613.66 52.6982ZM1623.52 52.6982C1622.6 52.6982 1621.79 52.4872 1621.11 52.0653C1620.42 51.6435 1619.89 51.0533 1619.51 50.2947C1619.13 49.5362 1618.94 48.6499 1618.94 47.6357C1618.94 46.6172 1619.13 45.7266 1619.51 44.9638C1619.89 44.201 1620.42 43.6087 1621.11 43.1868C1621.79 42.7649 1622.6 42.554 1623.52 42.554C1624.44 42.554 1625.24 42.7649 1625.93 43.1868C1626.61 43.6087 1627.15 44.201 1627.52 44.9638C1627.9 45.7266 1628.09 46.6172 1628.09 47.6357C1628.09 48.6499 1627.9 49.5362 1627.52 50.2947C1627.15 51.0533 1626.61 51.6435 1625.93 52.0653C1625.24 52.4872 1624.44 52.6982 1623.52 52.6982ZM1623.52 51.0938C1624.12 51.0938 1624.61 50.9361 1625.01 50.6207C1625.4 50.3054 1625.69 49.8857 1625.88 49.3615C1626.07 48.8374 1626.16 48.2599 1626.16 47.6293C1626.16 47.0028 1626.07 46.4276 1625.88 45.9034C1625.69 45.375 1625.4 44.951 1625.01 44.6314C1624.61 44.3118 1624.12 44.152 1623.52 44.152C1622.92 44.152 1622.42 44.3118 1622.03 44.6314C1621.64 44.951 1621.34 45.375 1621.15 45.9034C1620.96 46.4276 1620.87 47.0028 1620.87 47.6293C1620.87 48.2599 1620.96 48.8374 1621.15 49.3615C1621.34 49.8857 1621.64 50.3054 1622.03 50.6207C1622.42 50.9361 1622.92 51.0938 1623.52 51.0938ZM1631.78 46.6705V52.5H1629.87V42.6818H1631.7V44.2798H1631.82C1632.05 43.7599 1632.4 43.3423 1632.88 43.027C1633.37 42.7116 1633.98 42.554 1634.72 42.554C1635.39 42.554 1635.97 42.6946 1636.48 42.9759C1636.98 43.2528 1637.37 43.6662 1637.65 44.2159C1637.92 44.7656 1638.06 45.4453 1638.06 46.255V52.5H1636.15V46.4851C1636.15 45.7734 1635.96 45.2173 1635.59 44.8168C1635.22 44.4119 1634.71 44.2095 1634.07 44.2095C1633.62 44.2095 1633.23 44.3054 1632.88 44.4972C1632.54 44.6889 1632.27 44.9702 1632.07 45.3409C1631.88 45.7074 1631.78 46.1506 1631.78 46.6705ZM1644.85 42.6818V44.2159H1639.48V42.6818H1644.85ZM1640.92 40.3295H1642.83V49.6172C1642.83 49.9879 1642.89 50.267 1643 50.4545C1643.11 50.6378 1643.25 50.7635 1643.43 50.8317C1643.61 50.8956 1643.8 50.9276 1644.01 50.9276C1644.16 50.9276 1644.3 50.9169 1644.41 50.8956C1644.53 50.8743 1644.62 50.8572 1644.68 50.8445L1645.03 52.4233C1644.92 52.4659 1644.76 52.5085 1644.55 52.5511C1644.35 52.598 1644.09 52.6236 1643.79 52.6278C1643.28 52.6364 1642.81 52.5469 1642.38 52.3594C1641.95 52.1719 1641.59 51.8821 1641.33 51.4901C1641.06 51.098 1640.92 50.6058 1640.92 50.0135V40.3295ZM1649.46 52.7173C1648.84 52.7173 1648.27 52.6023 1647.77 52.3722C1647.27 52.1378 1646.87 51.799 1646.58 51.3558C1646.29 50.9126 1646.14 50.3693 1646.14 49.7259C1646.14 49.1719 1646.25 48.7159 1646.46 48.358C1646.67 48 1646.96 47.7166 1647.32 47.5078C1647.69 47.299 1648.09 47.1413 1648.54 47.0348C1648.99 46.9283 1649.44 46.8473 1649.91 46.7919C1650.49 46.7237 1650.97 46.6683 1651.34 46.6257C1651.7 46.5788 1651.97 46.5043 1652.14 46.402C1652.3 46.2997 1652.39 46.1335 1652.39 45.9034V45.8587C1652.39 45.3004 1652.23 44.8679 1651.91 44.5611C1651.6 44.2543 1651.14 44.1009 1650.52 44.1009C1649.88 44.1009 1649.37 44.2436 1649 44.5291C1648.63 44.8104 1648.38 45.1236 1648.24 45.4688L1646.44 45.0597C1646.65 44.4631 1646.97 43.9815 1647.38 43.6151C1647.79 43.2443 1648.26 42.9759 1648.8 42.8097C1649.34 42.6392 1649.9 42.554 1650.49 42.554C1650.89 42.554 1651.3 42.6009 1651.74 42.6946C1652.18 42.7841 1652.6 42.9503 1652.98 43.1932C1653.37 43.4361 1653.69 43.7834 1653.93 44.2351C1654.18 44.6825 1654.3 45.2642 1654.3 45.9801V52.5H1652.44V51.1577H1652.36C1652.24 51.4048 1652.05 51.6477 1651.8 51.8864C1651.56 52.125 1651.24 52.3232 1650.85 52.4808C1650.46 52.6385 1650 52.7173 1649.46 52.7173ZM1649.87 51.1832C1650.4 51.1832 1650.85 51.0788 1651.23 50.87C1651.61 50.6612 1651.9 50.3885 1652.09 50.0518C1652.29 49.7109 1652.39 49.3466 1652.39 48.9588V47.6932C1652.32 47.7614 1652.19 47.8253 1652 47.8849C1651.8 47.9403 1651.59 47.9893 1651.34 48.032C1651.09 48.0703 1650.85 48.1065 1650.62 48.1406C1650.38 48.1705 1650.19 48.196 1650.03 48.2173C1649.66 48.2642 1649.32 48.343 1649.01 48.4538C1648.71 48.5646 1648.47 48.7244 1648.28 48.9332C1648.1 49.1378 1648.01 49.4105 1648.01 49.7514C1648.01 50.2244 1648.19 50.5824 1648.54 50.8253C1648.89 51.0639 1649.33 51.1832 1649.87 51.1832Z" fill="white"/>
<path d="M1666 46H1676" stroke="white" stroke-linecap="round" stroke-linejoin="round"/>
<path d="M1671 41L1676 46L1671 51" stroke="white" stroke-linecap="round" stroke-linejoin="round"/>
</svg>
